# xmcd
#
# Track frame offsets:
#	150
#	15494
#	29561
#	42238
#	57203
#	72002
#	89422
#	106071
#	123201
#	139394
#	154802
#	168298
#	184383
#	200723
#	218427
#	233061
#	253606
#	270935
#
# Disc length: 3828 seconds
#
# Revision: 1
# Processed by: cddbd v1.5.1PL0 Copyright (c) Steve Scherf et al.
# Submitted via: audiograbber 1.83.01
#
DISCID=f30ef212
DTITLE=Various Artist - Hott Country 100
DYEAR=2004
DGENRE=Country
TTITLE0=Carolyn Dawn Johnson - Die Of A Broken Heart
TTITLE1=Wailin' Jenny's - Old Man
TTITLE2=Travis Tritt - The Girls Gone Wild
TTITLE3=Big and Rich - Save A Horse ( Rde A Cowboy )
TTITLE4=Brad Cotter - I Meant To
TTITLE5=Kenny Chesney  - I Go Back
TTITLE6=Kenny Rogers Feat  Whitney Duncan - My World Is Over
TTITLE7=Dierks Bentley - How Am I Doin'
TTITLE8=Buddy Jewel - One Step At A Time
TTITLE9=Doc Walker - North Dakota Boy
TTITLE10=Norah Jones feat Dolly Parton - Creepin' In
TTITLE11=Brad Johner - The Farmers Back
TTITLE12=Jed Hughes - High Lonesome
TTITLE13=Patty Loveless - I Wanna Believe
TTITLE14=Lisa Brokop - Wild Flower
TTITLE15=Jessi Alexander - Honeysuckle Sweet
TTITLE16=Old Crow Medicine Show - Wagon Wheel
TTITLE17=Paul Brandt - Leavin'
EXTD=
EXTT0=
EXTT1=
EXTT2=
EXTT3=
EXTT4=
EXTT5=
EXTT6=
EXTT7=
EXTT8=
EXTT9=
EXTT10=
EXTT11=
EXTT12=
EXTT13=
EXTT14=
EXTT15=
EXTT16=
EXTT17=
PLAYORDER=
